# xmcd
#
# Track frame offsets: 
#        151
#        20470
#        39016
#        65947
#        83932
#        104693
#        125514
#        143629
#
# Disc length: 2189 seconds
#
# Revision: 1
# Processed by: cddbd v1.5.2PL0 Copyright (c) Steve Scherf et al.
# Submitted via: ExactAudioCopyFreeDBPlugin 1.0
#
DISCID=6b088b08
DTITLE=Lejenz - Chapter 1: The Beginning...
DYEAR=1987
DGENRE=R&B
TTITLE0=Suspicious
TTITLE1=All Of My Lovin'
TTITLE2=Love Me All Through The Night
TTITLE3=Daytime Darkness
TTITLE4=Doctor Groovemaker
TTITLE5=Telephone Lover
TTITLE6=Don't Waste Time (Instrumental)
TTITLE7=Panic
EXTD=
EXTT0=
EXTT1=
EXTT2=
EXTT3=
EXTT4=
EXTT5=
EXTT6=
EXTT7=
PLAYORDER=
